<svg xmlns="http://www.w3.org/2000/svg" viewBox="0 0 1200 630" width="1200" height="630">
  <defs>
    <linearGradient id="bg" x1="0" y1="0" x2="1" y2="1">
      <stop offset="0" stop-color="#0f1a30"/>
      <stop offset="1" stop-color="#1a2744"/>
    </linearGradient>
  </defs>
  <rect width="1200" height="630" fill="url(#bg)"/>

  <!-- Gold corner accents -->
  <rect x="0" y="0" width="1200" height="6" fill="#f3d488"/>
  <rect x="0" y="624" width="1200" height="6" fill="#f3d488"/>

  <!-- Scales-of-justice mark -->
  <g transform="translate(96 168)" stroke="#f3d488" stroke-width="6" fill="none" stroke-linecap="round" stroke-linejoin="round">
    <circle cx="120" cy="120" r="110"/>
    <line x1="120" y1="30" x2="120" y2="210"/>
    <line x1="44" y1="70" x2="196" y2="70"/>
    <path d="M44 70 L18 130 Q44 158 70 130 Z" fill="#f3d488" fill-opacity=".22"/>
    <path d="M196 70 L170 130 Q196 158 222 130 Z" fill="#f3d488" fill-opacity=".22"/>
    <line x1="80" y1="210" x2="160" y2="210"/>
  </g>

  <!-- Wordmark -->
  <g font-family="Georgia, 'Playfair Display', serif" fill="#ffffff">
    <text x="400" y="240" font-size="76" font-weight="700">Clifford Chigbu</text>
    <text x="400" y="312" font-size="40" font-weight="400" fill="#f3d488" letter-spacing="4">ATTORNEY AT LAW</text>
  </g>

  <!-- Tagline -->
  <text x="400" y="386" font-family="Inter, Helvetica, Arial, sans-serif" font-size="30" font-weight="500" fill="#dfe6f5">
    Elk Grove, California &#183; Family &#183; Immigration &#183; Business
  </text>

  <!-- Phone + URL -->
  <text x="400" y="478" font-family="Inter, Helvetica, Arial, sans-serif" font-size="34" font-weight="700" fill="#ffffff">
    chigbulaws.com  &#183;  916-230-6381
  </text>

  <!-- Bar number badge -->
  <g transform="translate(400 510)">
    <rect width="360" height="48" rx="6" fill="#0b1428" stroke="#f3d488" stroke-width="1.5"/>
    <text x="180" y="32" font-family="Inter, Helvetica, Arial, sans-serif" font-size="20" font-weight="600" fill="#f3d488" text-anchor="middle" letter-spacing="2">
      CA STATE BAR &#35;221386  &#183;  ACTIVE
    </text>
  </g>
</svg>
